<svg width="24" height="24" viewBox="0 0 24 24" fill="none" xmlns="http://www.w3.org/2000/svg">
<path fill-rule="evenodd" clip-rule="evenodd" d="M22.5591 12.2497C22.5591 11.4697 22.4891 10.7197 22.3591 9.99976H11.9995V14.2546H17.9193C17.6643 15.6296 16.8893 16.7945 15.7244 17.5745V20.3344H19.2792C21.3592 18.4194 22.5591 15.5996 22.5591 12.2497Z" fill="#4285F4"/>
<path fill-rule="evenodd" clip-rule="evenodd" d="M11.9996 22.999C14.9695 22.999 17.4594 22.014 19.2793 20.3341L15.7244 17.5742C14.7395 18.2341 13.4795 18.6241 11.9996 18.6241C9.13467 18.6241 6.70976 16.6892 5.84479 14.0893H2.16992V16.9392C3.97986 20.5341 7.69972 22.999 11.9996 22.999Z" fill="#34A853"/>
<path fill-rule="evenodd" clip-rule="evenodd" d="M5.84482 14.0896C5.62483 13.4296 5.49984 12.7247 5.49984 11.9997C5.49984 11.2747 5.62483 10.5697 5.84482 9.90977V7.05988H2.16996C1.42498 8.54482 1 10.2248 1 11.9997C1 13.7746 1.42498 15.4546 2.16996 16.9395L5.84482 14.0896Z" fill="#FBBC05"/>
<path fill-rule="evenodd" clip-rule="evenodd" d="M11.9996 5.37484C13.6145 5.37484 15.0645 5.92982 16.2044 7.01978L19.3593 3.8649C17.4544 2.08996 14.9645 1 11.9996 1C7.69972 1 3.97986 3.46491 2.16992 7.05978L5.84479 9.90967C6.70976 7.30977 9.13467 5.37484 11.9996 5.37484Z" fill="#EA4335"/>
</svg>
